#Comment line ignore any data following # character 
#Hierarchical Translation and Rotation (.htr) file 
[Header]	
#Header keywords are followed by a single value 
FileType HTR		#Single word string
DataType HTRS		#Translation followed by rotation and scale data
FileVersion 1		#integer
NumSegments 64		#integer
NumFrames 3		#integer
DataFrameRate 30		#integer, data frame rate in this file
EulerRotationOrder ZYX
CalibrationUnits mm
RotationUnits Degrees
GlobalAxisofGravity Y
BoneLengthAxis Y
ScaleFactor 1.00
[SegmentNames&Hierarchy]
#CHILD	PARENT
Pinger_Root GLOBAL
Pelvis Pinger_Root
L_Hip Pelvis
R_Hip Pelvis
Rear_Leg01 Pelvis
Spine1 Pelvis
L_Leg01 L_Hip
L_Leg02 L_Leg01
L_Leg03 L_Leg02
L_Foot L_Leg03
L_Toe1_01 L_Foot
L_Toe2_01 L_Foot
L_Toe3_01 L_Foot
planeAlignerLeft L_Foot
L_Toe1_02 L_Toe1_01
L_Toe1_03 L_Toe1_02
L_Toe2_02 L_Toe2_01
L_Toe2_03 L_Toe2_02
L_Toe3_02 L_Toe3_01
L_Toe3_03 L_Toe3_02
planeLockWeightLeft planeAlignerLeft
R_Leg01 R_Hip
R_Leg02 R_Leg01
R_Leg03 R_Leg02
R_Foot R_Leg03
planeAlignerRight R_Foot
R_Toe1_01 R_Foot
R_Toe2_01 R_Foot
R_Toe3_01 R_Foot
planeLockWeightRight planeAlignerRight
R_Toe1_02 R_Toe1_01
R_Toe1_03 R_Toe1_02
R_Toe2_02 R_Toe2_01
R_Toe2_03 R_Toe2_02
R_Toe3_02 R_Toe3_01
R_Toe3_03 R_Toe3_02
Rear_Leg02 Rear_Leg01
Rear_Leg03 Rear_Leg02
Rear_Leg04 Rear_Leg03
Rear_Foot Rear_Leg04
planeAlignerCenter Rear_Foot
Rear_Toe1_01 Rear_Foot
Rear_Toe2_01 Rear_Foot
Rear_Toe3_01 Rear_Foot
planeLockWeightCenter planeAlignerCenter
Rear_Toe1_02 Rear_Toe1_01
Rear_Toe1_03 Rear_Toe1_02
Rear_Toe2_02 Rear_Toe2_01
Rear_Toe2_03 Rear_Toe2_02
Rear_Toe3_02 Rear_Toe3_01
Rear_Toe3_03 Rear_Toe3_02
Back_Bone Spine1
Head Spine1
Motor_Bone Back_Bone
Ping_Mechanism Back_Bone
BN_LookIK Head
bottomMouth Head
L_Mouth01 Head
L_mouthFront Head
mouthGun Head
R_Mouth01 Head
R_mouthFront Head
TopMouth Head
weapon_bone Head
[BasePosition]
#SegmentName Tx, Ty, Tz, Rx, Ry, Rz, BoneLength
Pinger_Root 0.000000 0.000000 0.000000 -90.000000 0.000000 0.000000 10.000000 
Pelvis 0.000000 0.000000 0.000000 0.000000 0.000000 0.000000 10.000000 
L_Hip 0.000000 0.000000 0.000000 0.000000 0.000000 0.000000 10.000000 
R_Hip 0.000000 0.000000 0.000000 0.000000 0.000000 0.000000 10.000000 
Rear_Leg01 0.000000 0.000000 0.000000 0.000000 0.000000 0.000000 10.000000 
Spine1 0.000000 0.000000 0.000000 0.000000 0.000000 0.000000 10.000000 
L_Leg01 0.000000 0.000000 0.000000 0.000000 0.000000 0.000000 10.000000 
L_Leg02 0.000000 0.000000 0.000000 0.000000 0.000000 0.000000 10.000000 
L_Leg03 0.000000 0.000000 0.000000 0.000000 0.000000 0.000000 10.000000 
L_Foot 0.000000 0.000000 0.000000 0.000000 0.000000 0.000000 10.000000 
L_Toe1_01 0.000000 0.000000 0.000000 0.000000 0.000000 0.000000 10.000000 
L_Toe2_01 0.000000 0.000000 0.000000 0.000000 0.000000 0.000000 10.000000 
L_Toe3_01 0.000000 0.000000 0.000000 0.000000 0.000000 0.000000 10.000000 
planeAlignerLeft 0.000000 0.000000 0.000000 0.000000 0.000000 0.000000 10.000000 
L_Toe1_02 0.000000 0.000000 0.000000 0.000000 0.000000 0.000000 10.000000 
L_Toe1_03 0.000000 0.000000 0.000000 0.000000 0.000000 0.000000 10.000000 
L_Toe2_02 0.000000 0.000000 0.000000 0.000000 0.000000 0.000000 10.000000 
L_Toe2_03 0.000000 0.000000 0.000000 0.000000 0.000000 0.000000 10.000000 
L_Toe3_02 0.000000 0.000000 0.000000 0.000000 0.000000 0.000000 10.000000 
L_Toe3_03 0.000000 0.000000 0.000000 0.000000 0.000000 0.000000 10.000000 
planeLockWeightLeft 0.000000 0.000000 0.000000 0.000000 0.000000 0.000000 10.000000 
R_Leg01 0.000000 0.000000 0.000000 0.000000 0.000000 0.000000 10.000000 
R_Leg02 0.000000 0.000000 0.000000 0.000000 0.000000 0.000000 10.000000 
R_Leg03 0.000000 0.000000 0.000000 0.000000 0.000000 0.000000 10.000000 
R_Foot 0.000000 0.000000 0.000000 0.000000 0.000000 0.000000 10.000000 
planeAlignerRight 0.000000 0.000000 0.000000 0.000000 0.000000 0.000000 10.000000 
R_Toe1_01 0.000000 0.000000 0.000000 0.000000 0.000000 0.000000 10.000000 
R_Toe2_01 0.000000 0.000000 0.000000 0.000000 0.000000 0.000000 10.000000 
R_Toe3_01 0.000000 0.000000 0.000000 0.000000 0.000000 0.000000 10.000000 
planeLockWeightRight 0.000000 0.000000 0.000000 0.000000 0.000000 0.000000 10.000000 
R_Toe1_02 0.000000 0.000000 0.000000 0.000000 0.000000 0.000000 10.000000 
R_Toe1_03 0.000000 0.000000 0.000000 0.000000 0.000000 0.000000 10.000000 
R_Toe2_02 0.000000 0.000000 0.000000 0.000000 0.000000 0.000000 10.000000 
R_Toe2_03 0.000000 0.000000 0.000000 0.000000 0.000000 0.000000 10.000000 
R_Toe3_02 0.000000 0.000000 0.000000 0.000000 0.000000 0.000000 10.000000 
R_Toe3_03 0.000000 0.000000 0.000000 0.000000 0.000000 0.000000 10.000000 
Rear_Leg02 0.000000 0.000000 0.000000 0.000000 0.000000 0.000000 10.000000 
Rear_Leg03 0.000000 0.000000 0.000000 0.000000 0.000000 0.000000 10.000000 
Rear_Leg04 0.000000 0.000000 0.000000 0.000000 0.000000 0.000000 10.000000 
Rear_Foot 0.000000 0.000000 0.000000 0.000000 0.000000 0.000000 10.000000 
planeAlignerCenter 0.000000 0.000000 0.000000 0.000000 0.000000 0.000000 10.000000 
Rear_Toe1_01 0.000000 0.000000 0.000000 0.000000 0.000000 0.000000 10.000000 
Rear_Toe2_01 0.000000 0.000000 0.000000 0.000000 0.000000 0.000000 10.000000 
Rear_Toe3_01 0.000000 0.000000 0.000000 0.000000 0.000000 0.000000 10.000000 
planeLockWeightCenter 0.000000 0.000000 0.000000 0.000000 0.000000 0.000000 10.000000 
Rear_Toe1_02 0.000000 0.000000 0.000000 0.000000 0.000000 0.000000 10.000000 
Rear_Toe1_03 0.000000 0.000000 0.000000 0.000000 0.000000 0.000000 10.000000 
Rear_Toe2_02 0.000000 0.000000 0.000000 0.000000 0.000000 0.000000 10.000000 
Rear_Toe2_03 0.000000 0.000000 0.000000 0.000000 0.000000 0.000000 10.000000 
Rear_Toe3_02 0.000000 0.000000 0.000000 0.000000 0.000000 0.000000 10.000000 
Rear_Toe3_03 0.000000 0.000000 0.000000 0.000000 0.000000 0.000000 10.000000 
Back_Bone 0.000000 0.000000 0.000000 0.000000 0.000000 0.000000 10.000000 
Head 0.000000 0.000000 0.000000 0.000000 0.000000 0.000000 10.000000 
Motor_Bone 0.000000 0.000000 0.000000 0.000000 0.000000 0.000000 10.000000 
Ping_Mechanism 0.000000 0.000000 0.000000 0.000000 0.000000 0.000000 10.000000 
BN_LookIK 0.000000 0.000000 0.000000 0.000000 0.000000 0.000000 10.000000 
bottomMouth 0.000000 0.000000 0.000000 0.000000 0.000000 0.000000 10.000000 
L_Mouth01 0.000000 0.000000 0.000000 0.000000 0.000000 0.000000 10.000000 
L_mouthFront 0.000000 0.000000 0.000000 0.000000 0.000000 0.000000 10.000000 
mouthGun 0.000000 0.000000 0.000000 0.000000 0.000000 0.000000 10.000000 
R_Mouth01 0.000000 0.000000 0.000000 0.000000 0.000000 0.000000 10.000000 
R_mouthFront 0.000000 0.000000 0.000000 0.000000 0.000000 0.000000 10.000000 
TopMouth 0.000000 0.000000 0.000000 0.000000 0.000000 0.000000 10.000000 
weapon_bone 0.000000 0.000000 0.000000 0.000000 0.000000 0.000000 10.000000 
#Beginning of Data. Separated by tabs
#Fr	Tx	Ty	Tz	Rx	Ry	Rz	SF
[Pinger_Root]
6 400.874603 0.000035 0.000000 -0.000075 -0.000000 -0.000020 400.874603
7 489.446198 0.000043 0.000000 -0.000075 -0.000000 -0.000020 489.446198
8 580.000122 0.000051 0.000000 -0.000075 -0.000000 -0.000020 580.000122
[Pelvis]
6 604.133240 421.588745 5049.968262 84.589546 -82.832230 -137.443039 5103.419922
7 588.998535 520.260925 5044.399902 78.457458 -79.262772 -130.862000 5105.248047
8 572.503906 609.013611 5037.043945 74.159958 -76.212959 -126.027756 5105.924805
[L_Hip]
6 5.766392 125.831482 872.656799 -178.253311 -81.787712 87.381248 881.701050
7 5.766392 125.831482 872.656799 -178.253311 -81.787758 87.381340 881.701050
8 5.766392 125.831482 872.656799 -178.253311 -81.787758 87.381340 881.701050
[R_Hip]
6 5.765438 125.836372 -872.654907 -1.746713 81.787666 87.381149 881.699829
7 5.765438 125.836372 -872.654907 -1.746690 81.787712 87.381248 881.699829
8 5.765438 125.836372 -872.654907 -1.746690 81.787712 87.381248 881.699829
[Rear_Leg01]
6 -192.298416 -925.602966 -0.001907 161.091705 15.981362 -151.801514 945.367432
7 -192.298416 -925.602966 -0.001907 162.232330 18.197464 -149.213181 945.367432
8 -192.298416 -925.602966 -0.001907 162.711685 18.710253 -148.692490 945.367432
[Spine1]
6 290.604584 5.007505 0.000477 39.850441 -18.685568 30.848417 290.647736
7 290.604584 5.007505 0.000477 38.690613 -19.153040 34.961246 290.647736
8 290.604584 5.007505 0.000477 37.302704 -19.594507 38.509964 290.647736
[L_Leg01]
6 761.932007 -0.002384 -0.069261 62.632767 -26.719334 -72.632645 761.932068
7 761.932007 -0.002384 -0.069261 64.284508 -23.001820 -76.036301 761.932068
8 761.932007 -0.002384 -0.069261 65.658615 -19.204166 -79.240166 761.932068
[L_Leg02]
6 1441.140503 -0.000954 -0.000715 -1.345366 0.609374 -108.344208 1441.140503
7 1441.140503 -0.000954 -0.000715 -1.359102 0.644430 -107.530945 1441.140503
8 1441.140503 -0.000954 -0.000715 -1.370493 0.664639 -106.038765 1441.140503
[L_Leg03]
6 1686.963989 -0.000715 -0.000954 0.050796 -0.010070 96.904671 1686.963989
7 1686.963989 -0.000715 -0.000954 0.054239 -0.013115 95.516029 1686.963989
8 1686.963989 -0.000715 -0.000954 0.057838 -0.012821 94.597412 1686.963989
[L_Foot]
6 3041.570068 -30.715107 11.297464 -4.185842 16.391796 60.986065 3041.746094
7 3041.570068 -30.715107 11.297464 -4.070693 16.576578 62.588009 3041.746094
8 3041.570068 -30.715107 11.297464 -4.147524 16.704721 63.445007 3041.746094
[L_Toe1_01]
6 -188.216690 -224.732346 -21.137953 89.550888 -2.786105 -164.548706 293.899567
7 -188.216690 -224.732346 -21.137953 89.495331 -2.549388 -164.259766 293.899567
8 -188.216690 -224.732346 -21.137953 89.440964 -2.312402 -163.971130 293.899567
[L_Toe2_01]
6 200.746536 -219.926590 148.838394 -77.616852 -14.031177 -44.462635 332.896027
7 200.746536 -219.926590 148.838394 -77.661362 -13.890563 -44.431591 332.896027
8 200.746536 -219.926590 148.838394 -77.705780 -13.749933 -44.400677 332.896027
[L_Toe3_01]
6 188.832520 -219.859131 -191.078659 -105.425446 15.315402 -45.597870 347.140900
7 188.832520 -219.859131 -191.078659 -105.557816 15.697233 -45.768761 347.140900
8 188.832520 -219.859131 -191.078659 -105.691635 16.078686 -45.940907 347.140900
[planeAlignerLeft]
6 -21.803680 -612.990356 17.441528 0.000000 -89.972023 -90.014915 613.625977
7 -27.868866 -614.272827 12.911863 0.000000 -90.000000 -90.017578 615.040222
8 -33.934052 -615.555298 8.382201 0.000000 -89.960434 -90.020218 616.546936
[L_Toe1_02]
6 413.761139 0.000477 0.000000 0.001409 -22.851999 0.001409 413.761139
7 413.761139 0.000477 0.000000 0.001407 -23.072332 0.001407 413.761139
8 413.761139 0.000477 0.000000 0.001405 -23.292667 0.001405 413.761139
[L_Toe1_03]
6 464.317322 0.000358 -0.000089 0.012585 79.297218 0.012585 464.317322
7 464.317322 0.000358 -0.000089 0.011608 78.394966 0.011608 464.317322
8 464.317322 0.000358 -0.000089 0.010614 77.300545 0.010614 464.317322
[L_Toe2_02]
6 342.235809 -0.000477 0.000238 0.001180 -77.946869 0.001180 342.235809
7 342.235809 -0.000477 0.000238 0.001180 -78.108490 0.001180 342.235809
8 342.235809 -0.000477 0.000238 0.001180 -78.270103 0.001180 342.235809
[L_Toe2_03]
6 420.210846 -0.000715 0.000000 -179.997040 76.000107 -179.993515 420.210846
7 420.210846 -0.000715 0.000000 -179.997360 75.021172 -179.993835 420.210846
8 420.210846 -0.000715 0.000000 -179.997635 74.042152 -179.994095 420.210846
[L_Toe3_02]
6 329.270111 0.000954 0.000000 0.001177 -81.869431 0.001177 329.270111
7 329.270111 0.000954 0.000000 0.001177 -81.923790 0.001177 329.270111
8 329.270111 0.000954 0.000000 0.001176 -81.978065 0.001176 329.270111
[L_Toe3_03]
6 439.137451 -0.001907 0.000954 -179.998032 72.320251 -179.994492 439.137451
7 439.137451 -0.001907 0.000954 -179.998123 71.887115 -179.994583 439.137451
8 439.137451 -0.001907 0.000954 -179.998199 71.454048 -179.994659 439.137451
[planeLockWeightLeft]
6 1000.000488 -0.000094 -0.000101 -0.011826 -0.004376 0.005620 1000.000488
7 1000.000488 -0.000082 -0.000110 -0.011826 -0.004376 0.005620 1000.000488
8 1000.000488 -0.000070 -0.000119 -0.011826 -0.004376 0.005620 1000.000488
[R_Leg01]
6 761.455627 -0.001907 -0.000358 95.554741 24.548801 93.384682 761.455688
7 761.455627 -0.001907 -0.000358 96.117699 31.758181 92.746559 761.455688
8 761.455627 -0.001907 -0.000358 96.693909 37.740906 91.959862 761.455688
[R_Leg02]
6 1441.140625 0.000000 -0.000238 0.211061 0.017622 -73.453697 1441.140625
7 1441.140625 0.000000 -0.000238 0.217753 0.029594 -70.907623 1441.140625
8 1441.140625 0.000000 -0.000238 0.223556 0.035702 -69.030273 1441.140625
[R_Leg03]
6 1686.963989 0.000954 0.001431 -0.115691 0.010190 79.247162 1686.963989
7 1686.963989 0.000954 0.001431 -0.113310 0.011037 79.882164 1686.963989
8 1686.963989 0.000954 0.001431 -0.110921 0.011857 80.517151 1686.963989
[R_Foot]
6 3041.560059 -30.531288 -11.204481 -0.995716 -20.517811 101.387680 3041.734131
7 3041.560059 -30.531288 -11.204481 -0.696636 -20.657459 101.501160 3041.734131
8 3041.560059 -30.531288 -11.204481 -0.564389 -20.865530 102.141380 3041.734131
[planeAlignerRight]
6 -102.857361 -632.659058 52.965851 0.000000 -89.951546 -90.014481 643.150452
7 -132.535416 -664.163452 66.873634 0.000000 -89.972023 -90.016403 680.551880
8 -157.794205 -693.303955 77.320099 0.000000 -89.960434 -90.018311 715.225708
[R_Toe1_01]
6 -188.383347 -224.864899 21.052242 90.911255 -0.768220 -159.193604 294.101532
7 -188.383347 -224.864899 21.052242 90.883926 -1.447365 -154.885910 294.101532
8 -188.383347 -224.864899 21.052242 90.807663 -1.931819 -151.015732 294.101532
[R_Toe2_01]
6 200.637817 -220.002121 -148.787384 -101.840279 11.275144 -44.286617 332.857574
7 200.637817 -220.002121 -148.787384 -102.370827 10.481064 -46.850426 332.857574
8 200.637817 -220.002121 -148.787384 -102.863487 9.664531 -49.400272 332.857574
[R_Toe3_01]
6 188.606735 -220.092957 191.126343 -72.472748 -20.801392 -48.664677 347.192566
7 188.606735 -220.092957 191.126343 -71.386391 -21.327452 -51.775902 347.192566
8 188.606735 -220.092957 191.126343 -70.267159 -21.797531 -54.908024 347.192566
[planeLockWeightRight]
6 999.999695 0.000305 -0.000191 -0.011823 -0.004379 -0.000027 999.999695
7 999.999695 0.000305 -0.000191 -0.011823 -0.004379 -0.000027 999.999695
8 999.999695 0.000305 -0.000191 -0.011823 -0.004379 -0.000027 999.999695
[R_Toe1_02]
6 413.762085 0.000477 -0.000119 0.001388 -25.434610 0.001388 413.762085
7 413.762085 0.000477 -0.000119 0.001384 -26.007854 0.001384 413.762085
8 413.762085 0.000477 -0.000119 0.001390 -25.236916 0.001390 413.762085
[R_Toe1_03]
6 464.317810 0.000000 0.001088 0.005163 63.720886 0.005163 464.317810
7 464.317810 0.000000 0.001088 0.003764 53.663731 0.003764 464.317810
8 464.317810 0.000000 0.001088 0.002907 42.370781 0.002907 464.317810
[R_Toe2_02]
6 342.234741 -0.000954 0.000238 -0.002333 -79.686279 -0.002333 342.234741
7 342.234741 -0.000954 0.000238 -0.002332 -79.956543 -0.002332 342.234741
8 342.234741 -0.000954 0.000238 -0.002332 -80.057762 -0.002332 342.234741
[R_Toe2_03]
6 420.210846 0.000715 -0.000268 -179.995636 64.158127 -179.999222 420.210846
7 420.210846 0.000715 -0.000268 -179.995728 63.122082 -179.999329 420.210846
8 420.210846 0.000715 -0.000268 -179.995743 62.956825 -179.999344 420.210846
[R_Toe3_02]
6 329.270355 -0.000477 -0.000954 0.001176 -82.491020 0.001176 329.270355
7 329.270355 -0.000477 -0.000954 0.001176 -82.576378 0.001176 329.270355
8 329.270355 -0.000477 -0.000954 0.001176 -82.471260 0.001176 329.270355
[R_Toe3_03]
6 439.137939 0.000238 0.001431 -179.998734 68.207924 -179.995178 439.137939
7 439.137939 0.000238 0.001431 -179.998672 68.752121 -179.995102 439.137939
8 439.137939 0.000238 0.001431 -179.998581 69.296295 -179.995026 439.137939
[Rear_Leg02]
6 1162.777710 -0.029802 0.005960 -11.034328 3.330050 -119.832367 1162.777710
7 1162.777710 -0.029802 0.005960 -18.937990 10.387884 -114.399513 1162.777710
8 1162.777710 -0.029802 0.005960 -24.621696 13.462810 -120.961876 1162.777710
[Rear_Leg03]
6 607.192505 -0.013351 -0.073195 0.009895 -0.006184 80.361664 607.192505
7 607.192505 -0.013351 -0.073195 0.009990 -0.006029 78.573784 607.192505
8 607.192505 -0.013351 -0.073195 0.009993 -0.006024 78.516304 607.192505
[Rear_Leg04]
6 995.874512 -0.020504 -0.011921 -0.041960 -0.015788 104.579651 995.874573
7 995.874512 -0.020504 -0.011921 -0.043913 -0.015373 95.569481 995.874573
8 995.874512 -0.020504 -0.011921 -0.043876 -0.015478 95.295410 995.874573
[Rear_Foot]
6 3096.176270 -0.067472 -0.041425 55.278439 76.058243 -152.820084 3096.176270
7 3096.176270 -0.067472 -0.041425 72.441025 67.602303 -140.018143 3096.176270
8 3096.176270 -0.067472 -0.041425 84.833946 62.536823 -131.163788 3096.176270
[planeAlignerCenter]
6 -6.465759 189.654037 -805.088074 0.001618 -0.001701 -177.132874 827.150085
7 4.594736 -18.199818 -886.305664 0.001537 -0.001774 -171.804611 886.504456
8 25.091698 -123.882584 -930.245850 0.001492 -0.001812 -168.935806 938.793823
[Rear_Toe1_01]
6 0.653352 83.966492 -371.173737 0.337170 43.282280 93.233162 380.553192
7 0.653352 83.966492 -371.173737 0.836368 41.437889 99.176346 380.553192
8 0.653352 83.966492 -371.173737 0.860028 33.781178 102.232147 380.553192
[Rear_Toe2_01]
6 178.200760 -294.826019 -362.060547 17.257912 75.998520 -49.452152 499.765686
7 178.200760 -294.826019 -362.060547 3.839010 65.190178 -58.418385 499.765686
8 178.200760 -294.826019 -362.060547 1.166422 53.689476 -58.786762 499.765686
[Rear_Toe3_01]
6 -153.359680 -308.780914 -362.060852 -11.817639 76.017387 -120.723564 499.952881
7 -153.359680 -308.780914 -362.060852 4.140489 64.413689 -96.365288 499.952881
8 -153.359680 -308.780914 -362.060852 4.627612 51.553764 -91.221786 499.952881
[planeLockWeightCenter]
6 648.000244 0.000381 -0.000153 -0.011814 -0.004373 -0.000015 648.000244
7 896.000244 0.000458 -0.000019 -0.011814 -0.004373 -0.000015 896.000244
8 1000.000488 0.000496 -0.000162 -0.011814 -0.004373 -0.000015 1000.000488
[Rear_Toe1_02]
6 379.707825 0.194073 0.000477 -0.002646 -32.819653 -0.002646 379.707855
7 379.707825 0.194073 0.000477 -0.006677 -31.286221 -0.006677 379.707855
8 379.707825 0.194073 0.000477 -0.006670 -31.501993 -0.006670 379.707855
[Rear_Toe1_03]
6 500.129700 0.165701 0.000119 0.000000 89.549767 -0.003501 500.129761
7 500.129700 0.165701 0.000119 -179.992615 78.280113 -179.996124 500.129761
8 500.129700 0.165701 0.000119 -179.991852 79.677162 -179.995361 500.129761
[Rear_Toe2_02]
6 340.494507 0.000238 -0.000954 0.001176 -83.487900 0.001176 340.494507
7 340.494507 0.000238 -0.000954 0.001196 -67.941315 0.001196 340.494507
8 340.494507 0.000238 -0.000954 0.001236 -53.410748 0.001236 340.494507
[Rear_Toe2_03]
6 433.103577 0.000000 0.000238 179.973877 84.851814 179.973877 433.103546
7 433.103577 0.000000 0.000238 0.005875 66.952278 0.005875 433.103546
8 433.103577 0.000000 0.000238 0.003288 48.174641 0.003288 433.103546
[Rear_Toe3_02]
6 340.494141 -0.000358 -0.000477 0.001176 -83.249474 0.001176 340.494171
7 340.494141 -0.000358 -0.000477 0.007853 -66.090683 -0.009028 340.494171
8 340.494141 -0.000358 -0.000477 -0.002487 -48.203491 -0.002487 340.494171
[Rear_Toe3_03]
6 433.103577 0.001431 -0.000238 -179.987473 85.388924 -179.983963 433.103546
7 433.103577 0.001431 -0.000238 -0.000789 64.280731 -0.004376 433.103546
8 433.103577 0.001431 -0.000238 0.000487 42.397312 -0.003335 433.103546
[Back_Bone]
6 1312.175781 -701.934692 0.000954 -3.274529 -1.631327 -83.908981 1488.125488
7 1312.175781 -701.934692 0.000954 -3.206084 -2.430949 -83.410004 1488.125488
8 1312.175781 -701.934692 0.000954 -2.959318 -2.899582 -82.784332 1488.125488
[Head]
6 1406.159424 809.709290 0.001431 6.643798 -4.306217 1.011951 1622.625488
7 1406.159424 809.709290 0.001431 6.615740 -4.691831 0.468179 1622.625488
8 1406.159424 809.709290 0.001431 6.591344 -5.077681 -0.075697 1622.625488
[Motor_Bone]
6 1158.364380 -417.834747 0.000477 1.114805 -1.132542 -107.122055 1231.419434
7 1158.364380 -417.834747 0.000477 -1.034497 -1.094875 -107.077385 1231.419434
8 1158.364380 -417.834747 0.000477 -2.188165 -1.022762 -107.007042 1231.419434
[Ping_Mechanism]
6 1192.369141 -413.207367 -19.871672 0.000103 -0.000053 82.120995 1262.093262
7 1179.421021 -399.955414 -23.959198 0.000103 -0.000053 82.120995 1245.621338
8 1168.619629 -387.434052 -24.720457 0.000103 -0.000053 82.120995 1231.417114
[BN_LookIK]
6 193.241119 1380.371704 -0.002861 0.000000 89.965736 -31.038179 1393.832153
7 193.241119 1380.371704 -0.002861 0.000000 89.965736 -31.038179 1393.832153
8 193.241119 1380.371704 -0.002861 0.000000 89.965736 -31.038179 1393.832153
[bottomMouth]
6 -435.092926 615.759399 -0.000954 -0.000022 0.000016 73.527184 753.966492
7 -435.092926 615.759399 -0.000954 -0.000022 0.000016 73.527184 753.966492
8 -435.092926 615.759399 -0.000954 -0.000022 0.000016 73.527184 753.966492
[L_Mouth01]
6 554.440979 7.658243 838.222046 150.204178 23.759130 109.605339 1005.027161
7 554.440979 7.658243 838.222046 150.204178 23.759130 109.605339 1005.027161
8 554.440979 7.658243 838.222046 150.204178 23.759130 109.605339 1005.027161
[L_mouthFront]
6 551.629089 934.514771 339.150421 0.000081 2.804060 79.119301 1136.941284
7 551.629089 934.514771 339.150421 0.000081 2.804060 79.119301 1136.941284
8 551.629089 934.514771 339.150421 0.000081 2.804060 79.119301 1136.941284
[mouthGun]
6 55.332661 1627.420898 0.000000 0.000023 0.000009 -11.038128 1628.361328
7 55.332661 1627.420898 0.000000 0.000023 0.000009 -11.038128 1628.361328
8 55.332661 1627.420898 0.000000 0.000023 0.000009 -11.038128 1628.361328
[R_Mouth01]
6 554.442383 7.659197 -838.223938 29.795891 -23.759109 109.605331 1005.029541
7 554.442383 7.659197 -838.223938 29.795891 -23.759109 109.605331 1005.029541
8 554.442383 7.659197 -838.223938 29.795891 -23.759109 109.605331 1005.029541
[R_mouthFront]
6 551.629089 934.514282 -339.151367 0.000029 -2.803930 79.119133 1136.941162
7 551.629089 934.514282 -339.151367 0.000029 -2.803930 79.119133 1136.941162
8 551.629089 934.514282 -339.151367 0.000029 -2.803930 79.119133 1136.941162
[TopMouth]
6 461.269867 -56.106091 -0.008583 -0.000059 -0.000268 92.025169 464.669525
7 461.269867 -56.106091 -0.008583 -0.000059 -0.000268 92.025169 464.669525
8 461.269867 -56.106091 -0.008583 -0.000059 -0.000268 92.025169 464.669525
[weapon_bone]
6 -987.239868 1448.372803 0.001431 0.000000 89.965736 -31.038221 1752.833740
7 -987.239868 1448.372803 0.001431 0.000000 89.965736 -31.038221 1752.833740
8 -987.239868 1448.372803 0.001431 0.000000 89.965736 -31.038221 1752.833740
